<svg id="visual" viewBox="0 0 900 600" width="900" height="600" xmlns="http://www.w3.org/2000/svg" xmlns:xlink="http://www.w3.org/1999/xlink" version="1.1"><rect x="0" y="0" width="900" height="600" fill="#001220"></rect><path d="M0 149L30 149C60 149 120 149 180 147.7C240 146.3 300 143.7 360 140.2C420 136.7 480 132.3 540 134.3C600 136.3 660 144.7 720 158.8C780 173 840 193 870 203L900 213L900 601L870 601C840 601 780 601 720 601C660 601 600 601 540 601C480 601 420 601 360 601C300 601 240 601 180 601C120 601 60 601 30 601L0 601Z" fill="#c62368"></path><path d="M0 242L30 246.8C60 251.7 120 261.3 180 273.5C240 285.7 300 300.3 360 295.3C420 290.3 480 265.7 540 264.3C600 263 660 285 720 293.7C780 302.3 840 297.7 870 295.3L900 293L900 601L870 601C840 601 780 601 720 601C660 601 600 601 540 601C480 601 420 601 360 601C300 601 240 601 180 601C120 601 60 601 30 601L0 601Z" fill="#da3f67"></path><path d="M0 381L30 379.5C60 378 120 375 180 368.7C240 362.3 300 352.7 360 357.3C420 362 480 381 540 385C600 389 660 378 720 374.8C780 371.7 840 376.3 870 378.7L900 381L900 601L870 601C840 601 780 601 720 601C660 601 600 601 540 601C480 601 420 601 360 601C300 601 240 601 180 601C120 601 60 601 30 601L0 601Z" fill="#eb5967"></path><path d="M0 497L30 489.3C60 481.7 120 466.3 180 460.8C240 455.3 300 459.7 360 462C420 464.3 480 464.7 540 461.2C600 457.7 660 450.3 720 455C780 459.7 840 476.3 870 484.7L900 493L900 601L870 601C840 601 780 601 720 601C660 601 600 601 540 601C480 601 420 601 360 601C300 601 240 601 180 601C120 601 60 601 30 601L0 601Z" fill="#fa7268"></path></svg>